<svg xmlns="http://www.w3.org/2000/svg" xmlns:xlink="http://www.w3.org/1999/xlink" viewBox="0 0 299 299"><defs><linearGradient id="a" x1="128.11" y1="74.53" x2="156.9" y2="172.03" gradientUnits="userSpaceOnUse"><stop offset="0" stop-color="#ffd58b"/><stop offset="0.8" stop-color="#f4ab41"/><stop offset="1" stop-color="#eb8600"/></linearGradient></defs><title>thumbnail</title><rect width="299" height="299" rx="45.17" fill="none"/><path d="M239.24,155.25a92.93,92.93,0,0,1-68.12,25l.52-10.55A93,93,0,0,0,232,147.51Z" fill="#ffae2c"/><path d="M232,147.51a93,93,0,0,1-60.35,22.17l2.3-46.47.48-9.63h0l1.29-26.19,24.48,26.15,7.69,8.21Z" fill="#ffd58b"/><circle cx="183.98" cy="163.94" r="5.69" fill="#fff" stroke="#000" stroke-miterlimit="10"/><circle cx="190.4" cy="141.3" r="5.69" fill="#e26b00"/><path d="M207.88,121.75a5.69,5.69,0,1,1-7.69-8.21Z" fill="#e26b00"/><circle cx="211.57" cy="140.17" r="5.69" fill="#e26b00"/><path d="M179.19,123.89a5.7,5.7,0,0,1-5.25-.68l.48-9.63h0a8,8,0,0,1,.79-.36c2.95-1.1,3.72-8.13,9.18-.72C186.26,115,182.13,122.79,179.19,123.89Z" fill="#e26b00"/><path d="M131.94,181a92.91,92.91,0,0,1-66.57-28.85L73,144.84a93,93,0,0,0,59,25.53Z" fill="#ffae2c"/><path d="M132,170.37a93,93,0,0,1-59-25.53l33.69-32.08,7-6.65h0l19-18.09-.29,35.82-.09,11.25Z" fill="#ffd58b"/><circle cx="85.92" cy="149.18" r="5.69" fill="#e26b00"/><circle cx="106.17" cy="137.21" r="5.69" fill="#e26b00"/><path d="M132.31,135.09a5.63,5.63,0,0,1-3.06-.4,5.69,5.69,0,0,1,3.15-10.85Z" fill="#fff" stroke="#000" stroke-miterlimit="10"/><circle cx="122.29" cy="150.97" r="5.69" fill="#fff" stroke="#000" stroke-miterlimit="10"/><path d="M110.05,116.86a5.65,5.65,0,0,1-3.33-4.1l7-6.65h0a8.09,8.09,0,0,1,.83.28c2.88,1.24,8.3-3.33,7.14,5.81C121.28,115.32,112.94,118.09,110.05,116.86Z" fill="#e26b00"/><path d="M203.71,158.65a146.62,146.62,0,0,1-50.21,8.85,147,147,0,0,1-51.45-9.3L123.63,108,137,112l-9.42-13.19,3.52-8.2,6-14h0L153.5,38.5l15.64,37.43L165,86l6.3-4.9,4,9.66,6.86,16.41Z" fill="url(#a)"/><circle cx="123.5" cy="156.5" r="9" fill="#e26b00"/><path d="M210.18,174.13a147,147,0,0,1-114.73-.58l6.6-15.35a147,147,0,0,0,51.45,9.3,146.62,146.62,0,0,0,50.21-8.85Z" fill="#ffae2c"/><circle cx="145.5" cy="126.5" r="9" fill="#e26b00"/><path d="M182.2,107.17a8.88,8.88,0,0,1-4.7,1.33,9,9,0,0,1-2.16-17.74Z" fill="#e26b00"/><circle cx="177.5" cy="136.5" r="9" fill="#e26b00"/><path d="M138.5,94.5a9,9,0,0,1-7.4-3.89l6-14h0a10.4,10.4,0,0,1,1.37-.1c5,0,10-10,14,4C153.87,85.28,143.47,94.5,138.5,94.5Z" fill="#e26b00"/><path d="M95.35,207.89a3.65,3.65,0,0,1,.18-.47c.6-1,2-1.28,3.29-1.23.26-2.05,1-5.59.61-6.19s-3.51-2.83-3-5c.62-2.78,3.18-3.92,5.53-4.09a11.15,11.15,0,0,1,2.64.19,16.4,16.4,0,0,1,2.54.7c4,1.37,7.4,3.63,8.49,7.2a7.3,7.3,0,0,1,.2,3.08,8,8,0,0,1-1,2.88c-2,3.56-6.4,5.44-11.14,5.48-.08,0-.12,0-.2,0l-.62,2.77a6.25,6.25,0,0,1-.93,2.44,2.62,2.62,0,0,1-2.43,1.06,2.59,2.59,0,0,1-2-2.09,5.17,5.17,0,0,1,.06-1.92c.06-.27.16-.58.23-.89l.39-2L97,209.59C96,209.37,95.16,208.76,95.35,207.89Zm9.48-3.48c-.16.88-.32,1.79-.52,2.65,1.71,0,3.56-.6,3.86-2.43s-1.3-2.88-2.83-3.45C105.22,202.28,105,203.33,104.83,204.41Zm7.14-7.88c-.39-.06-.81.12-.82.52a1.64,1.64,0,0,0,.11.45,6.21,6.21,0,0,0,1.5,1.89,1.26,1.26,0,0,0,.34.23l.18,0a.29.29,0,0,0,.33-.21l0-.21C113.75,198.21,113.2,196.72,112,196.53Z"/><path d="M123.66,218.5a2.16,2.16,0,0,1-2.33,1.37c-2.1-.23-2.48-2.07-2.68-3.67-.37-2.94-.83-5.88-1.12-8.81a25.44,25.44,0,0,1-.07-6.18c.37-2.79,1.68-4.62,3.73-5.27a4.51,4.51,0,0,1,2-.2,4.76,4.76,0,0,1,3.32,2.06,6.38,6.38,0,0,1,1,4.28A26.55,26.55,0,0,1,127,205c-.63,2.73-1.2,5.43-1.8,8.12A28.94,28.94,0,0,1,123.66,218.5Zm2.12-17.12a4.37,4.37,0,0,0-.56-2.85,1.36,1.36,0,0,0-1.06-.75c-.25,0-.54-.06-.57.22l0,.18c0,.5.47.77.72,1.12a4.8,4.8,0,0,1,.52,2.12.89.89,0,0,0,.5.63h.18c.11,0,.24-.12.25-.22Z"/><path d="M129.67,201.77a4.47,4.47,0,0,1,1.55-2.88c1.54-1.38,3.79-1.94,6.17-2.2a29.81,29.81,0,0,1,4.23-.17,17.11,17.11,0,0,1,7,1.63c1.47.72,3.13,2,3.14,4,0,2.49-1.83,3.93-3.23,5.24-2.3,2-4.55,4.17-6.82,6.31-.23.2-.63.51-.64.9s.36.65.87.67c2.09.06,4.08-1.07,6.13-1.06a5.24,5.24,0,0,1,4.5,2.49,4.58,4.58,0,0,1,.65,2.19,3,3,0,0,1-1.08,2.43,6.54,6.54,0,0,1-3.22,1.26,37.33,37.33,0,0,1-8,.63,28.49,28.49,0,0,1-5.56-.71c-2.75-.66-5.86-1.92-5.63-4.94a4.57,4.57,0,0,1,2.11-3.09c3.58-3,7.19-5.83,10.75-8.72.12-.1.35-.27.35-.49,0-.39-.28-.54-.65-.55a2.09,2.09,0,0,0-.52.05c-2.4.5-4.54,1.29-7.3,1.12S129.45,204.42,129.67,201.77Zm20,.58c0-.07,0-.14,0-.21a2.66,2.66,0,0,0-2-2.36c-.18,0-.6,0-.69.1a.85.85,0,0,0-.12.46c.14.57.69.9,1.05,1.26a10.34,10.34,0,0,0,.92.82,1,1,0,0,0,.33.18c.07,0,.15,0,.22,0A.28.28,0,0,0,149.67,202.35Zm1.15,15.8c0-.08,0-.15,0-.22a2.73,2.73,0,0,0-2.14-2.35c-.19,0-.65,0-.74.1a.75.75,0,0,0-.12.47c.15.57.73.89,1.12,1.25s.63.57,1,.82a1,1,0,0,0,.35.17c.08,0,.16,0,.24,0A.28.28,0,0,0,150.82,218.15Z"/><path d="M154.24,202.56a4.44,4.44,0,0,1,1.26-3c1.38-1.52,3.56-2.31,5.91-2.8a29.35,29.35,0,0,1,4.19-.59,17.06,17.06,0,0,1,7.14.93c1.53.57,3.31,1.7,3.53,3.72.27,2.47-1.44,4.08-2.7,5.52-2.09,2.27-4.12,4.61-6.16,7-.22.23-.58.57-.56,1s.43.62.93.58c2.09-.14,4-1.47,6-1.66a5.26,5.26,0,0,1,4.73,2,4.76,4.76,0,0,1,.87,2.12,3.06,3.06,0,0,1-.84,2.52,6.49,6.49,0,0,1-3.08,1.57,36.77,36.77,0,0,1-7.9,1.42,27.63,27.63,0,0,1-5.61-.15c-2.79-.38-6-1.33-6.08-4.35a4.58,4.58,0,0,1,1.79-3.29c3.27-3.3,6.58-6.52,9.83-9.74.11-.12.32-.31.3-.52,0-.39-.33-.52-.7-.49a2,2,0,0,0-.52.11c-2.34.72-4.39,1.73-7.15,1.83S154.28,205.23,154.24,202.56Zm20-1.4c0-.07,0-.14,0-.21A2.65,2.65,0,0,0,172,198.8c-.18,0-.6,0-.68.17a.81.81,0,0,0-.07.47c.2.55.78.82,1.17,1.14a8,8,0,0,0,1,.73.88.88,0,0,0,.34.15c.08,0,.15,0,.23,0A.29.29,0,0,0,174.2,201.16Zm2.71,15.6a1.49,1.49,0,0,0,0-.21,2.71,2.71,0,0,0-2.37-2.13c-.19,0-.64,0-.72.18a.74.74,0,0,0-.07.47c.2.55.82.81,1.24,1.13a10.83,10.83,0,0,0,1.05.72,1.09,1.09,0,0,0,.37.14c.08,0,.16,0,.24,0A.27.27,0,0,0,176.91,216.76Z"/><path d="M178.82,214.73c0-.1,0-.21,0-.35.21-2,2.35-2.27,4.46-2.8.5-3.65.66-7.3,1.23-10.93.34-2.14,1-4.34,2.7-5.55a3.57,3.57,0,0,1,1.59-.64A5.36,5.36,0,0,1,193,196c3,2.45,5,5.95,6.84,9.38.63,1.22,1.42,3.35,1.9,3.61.82.45,4.83-.3,5.33,1.95a2.24,2.24,0,0,1-2,2.69,6.78,6.78,0,0,1-1.19.14,19,19,0,0,1,.81,2.52c.38,1.81-.24,3.76-2.3,4.17-2.31.46-4-1.07-5-2.28a29.12,29.12,0,0,1-3.05-4.52,32.39,32.39,0,0,0-4.34.39c-1.55.24-4.08.58-4.51,1.13s-.28,2.53-.4,3.75c-.1.92-.28,2.15-1.55,2.32a1.33,1.33,0,0,1-1.45-1.29,6,6,0,0,1,.06-1.12c.11-.8.25-1.57.35-2.38a4.68,4.68,0,0,1-1,.23A2.37,2.37,0,0,1,178.82,214.73Zm10-15.12c-.59.09-.72.65-.85,1.06a92.37,92.37,0,0,0-1.8,10.27c1.25-.25,2.54-.48,3.83-.68.92-.15,1.83-.29,2.75-.41-.05-.1-.08-.24-.13-.34-1.14-3.06-1.47-6.42-3-9.31A.77.77,0,0,0,188.81,199.61Zm4-1.37,0-.21a2.66,2.66,0,0,0-2.38-2,.7.7,0,0,0-.26,0,.52.52,0,0,0-.45.68c.24.54.87.76,1.3,1.05a3,3,0,0,0,1.4.77c.07,0,.12,0,.19,0A.38.38,0,0,0,192.85,198.24ZM206,211l0-.21a2.3,2.3,0,0,0-2.11-1.25c-.33,0-.65.1-.59.41s.52.4.82.48a3.62,3.62,0,0,1,1,.73.75.75,0,0,0,.63.15A.29.29,0,0,0,206,211Z"/><path d="M131.59,257.24a4.57,4.57,0,0,1-.64,0c-2.13-.36-3.64-1.9-4.93-3.19s-2.8-2.87-4.15-4.38c-.1-.1-.16-.19-.26-.29-.23,1.77-.45,3.51-.71,5.25-.22,1.45-.74,3.22-2.45,3.22a2.51,2.51,0,0,1-2-1.13,6.57,6.57,0,0,1-.84-2.38c-1-4.54-2.35-9.05-2.83-13.65a19.76,19.76,0,0,1-.13-2,8,8,0,0,1,.61-3.25,4.92,4.92,0,0,1,4.38-3.06,5.11,5.11,0,0,1,4.6,3.48,8.39,8.39,0,0,1,.45,3c0,.52,0,1-.06,1.55a17.49,17.49,0,0,1,6.7-5.44,4.26,4.26,0,0,1,2-.62h.1a1.64,1.64,0,0,1,1.71,1.48c0,1-.87,1.61-1.49,2-2.93,2-6.37,3.29-8.56,6.06a.79.79,0,0,0-.26.58.61.61,0,0,0,.39.51c1.71,1,3.54,1.74,5.18,2.77a18.82,18.82,0,0,1,4.48,3.8,4.87,4.87,0,0,1,1.41,3.19A2.49,2.49,0,0,1,131.59,257.24Zm-10.66-18.87c0-.06,0-.13,0-.19v-.32a4.12,4.12,0,0,0-1.44-3.38,1.11,1.11,0,0,0-.65-.23c-.25,0-.48.16-.48.55s.58.74.84,1.06a2.76,2.76,0,0,1,.48.81c.23.67.13,1.8.84,2h.16A.25.25,0,0,0,120.93,238.37Zm11.63,15.94v-.19a2.94,2.94,0,0,0-.84-1.87,1.67,1.67,0,0,0-1.29-.84c-.29,0-.42.19-.42.55a1.94,1.94,0,0,0,.61.87,4.51,4.51,0,0,1,.42.48c.29.39.55,1.13,1.1,1.26h.16A.36.36,0,0,0,132.56,254.31Zm-.49-18.55c0-.51-.54-.74-1-.83-.07,0-.13,0-.2,0a.53.53,0,0,0-.55.57,1.22,1.22,0,0,0,1,.87A.64.64,0,0,0,132.07,235.76Z"/><path d="M141.79,254.08a1.79,1.79,0,0,1-1.77,1.45c-1.7,0-2.19-1.61-2.51-3-.58-2.61-1.25-5.19-1.83-7.8a24.94,24.94,0,0,1-.74-5.53c0-2.55.93-4.35,2.67-5.15a3.91,3.91,0,0,1,1.7-.39,4.09,4.09,0,0,1,3.13,1.55,5.61,5.61,0,0,1,1.25,3.76,21.85,21.85,0,0,1-.19,2.64c-.32,2.51-.58,5-.87,7.47A29.87,29.87,0,0,1,141.79,254.08Zm.36-15.61a4,4,0,0,0-.74-2.51,1.21,1.21,0,0,0-1-.58c-.23,0-.48,0-.48.26v.16c.06.45.48.64.74.93a4.49,4.49,0,0,1,.64,1.87.77.77,0,0,0,.48.51H142a.24.24,0,0,0,.2-.22Z"/><path d="M152.58,250.67c0,1.06.22,2.16.22,3.25a7.49,7.49,0,0,1-.22,1.9,3.13,3.13,0,0,1-2.8,2.45,3.27,3.27,0,0,1-2.61-1.61,8.42,8.42,0,0,1-1.1-5c0-.64,0-1.35,0-2.06.16-4.28-.13-8.66,1.19-12.72.48-1.48,1.35-3.28,3.28-3.28a3.8,3.8,0,0,1,3,2.16,13.62,13.62,0,0,1,1.35,4.38c.58,3,1.25,6.08,2,9.11a1,1,0,0,0,.58.8.46.46,0,0,0,.57-.38,1.77,1.77,0,0,0,0-.46c-.25-3.31-1.19-6.63-1.19-9.94v-.16c0-2.52.87-4.71,2.74-5.45a3.13,3.13,0,0,1,1.19-.22,3.28,3.28,0,0,1,2.42,1.06,5.94,5.94,0,0,1,1.19,2.9,25.12,25.12,0,0,1,.42,4.67,54.79,54.79,0,0,1-1.58,11.56c-.39,1.77-1.06,4.05-3.22,4.05a4.24,4.24,0,0,1-2.93-1.64,22.39,22.39,0,0,1-4-5.92c-.13-.13-.07-.23-.32-.23S152.58,250.35,152.58,250.67Zm-1.84-15.55c-.26,0-.58.13-.58.39v.22a1.75,1.75,0,0,0,.16.42,6.13,6.13,0,0,0,1.52,1.61,1,1,0,0,0,.29.19h.19a.24.24,0,0,0,.22-.25v-.2C152.48,236.47,151.9,235.12,150.74,235.12Zm10.24-.26c-.32,0-.61.1-.61.33v.19a.94.94,0,0,0,.16.35A5,5,0,0,0,162,237a1.37,1.37,0,0,0,.32.16h.16a.28.28,0,0,0,.23-.22v-.17C162.62,235.93,162,234.86,161,234.86Z"/><path d="M182.71,245.39a4.06,4.06,0,0,1,1.22.16,6.15,6.15,0,0,1,4.12,6.12,8.29,8.29,0,0,1-3,6.28,9.43,9.43,0,0,1-6.25,2.22,11.25,11.25,0,0,1-5.92-1.71c-3.67-2.32-6.31-6.79-6.31-12.49,0-6.21,3.41-11.14,8.11-12.85a11.13,11.13,0,0,1,3.7-.61c3.26,0,6.54,1.26,8.05,3.19a4.18,4.18,0,0,1,1,2.61,4,4,0,0,1-1.87,3.25c-2.28,1.64-5.34,1.48-8,2.48a6.84,6.84,0,0,0-2.39,1.42,5.43,5.43,0,0,0-.83,6.82,5.82,5.82,0,0,0,4.92,2.74c1.32,0,3.19-.39,3.19-1.77,0-.94-.9-1.07-1.64-1.32a3.1,3.1,0,0,1-2-2.9A3.72,3.72,0,0,1,182.71,245.39Zm2.45-6.21V239a3.14,3.14,0,0,0-.68-1.74c-.36-.51-.74-1-1.16-1.45a3.34,3.34,0,0,0-1.16-.93.82.82,0,0,0-.26-.06.58.58,0,0,0-.54.64c.13.58.67.87,1.06,1.16a4,4,0,0,1,.77.77c.45.61.61,1.42,1.13,1.93a.82.82,0,0,0,.35.2h.2A.31.31,0,0,0,185.16,239.18Zm-.94,9c-.29,0-.61,0-.61.36s.42.35.64.51c.49.19.65,1.13,1.23,1.13a.42.42,0,0,0,.45-.45.7.7,0,0,0-.1-.36,2.64,2.64,0,0,0-1.32-1.12A.73.73,0,0,0,184.22,248.19Z"/></svg>