<svg xmlns="http://www.w3.org/2000/svg" xmlns:xlink="http://www.w3.org/1999/xlink" viewBox="0 0 319 130"><defs><linearGradient id="a" x1="218.47" y1="45.12" x2="233.74" y2="96.85" gradientUnits="userSpaceOnUse"><stop offset="0" stop-color="#ffd58b"/><stop offset="0.8" stop-color="#f4ab41"/><stop offset="1" stop-color="#eb8600"/></linearGradient></defs><title>white-logo</title><rect width="319" height="130" fill="none"/><path d="M277.43,88a49.32,49.32,0,0,1-36.14,13.25l.28-5.6a49.3,49.3,0,0,0,32-11.76Z" fill="#ffae2c"/><path d="M273.58,83.84a49.3,49.3,0,0,1-32,11.76L242.79,71l.25-5.11h0l.69-13.9,13,13.88,4.08,4.35Z" fill="#ffd58b"/><circle cx="248.11" cy="92.56" r="3.02" fill="#fff" stroke="#000" stroke-miterlimit="10"/><circle cx="251.52" cy="80.55" r="3.02" fill="#e26b00"/><path d="M260.79,70.17a3,3,0,0,1-1.32,1,3,3,0,0,1-2.76-5.32Z" fill="#e26b00"/><circle cx="262.75" cy="79.95" r="3.02" fill="#e26b00"/><path d="M245.57,71.31a3,3,0,0,1-2.78-.36l.25-5.11h0a3.89,3.89,0,0,1,.42-.19c1.56-.59,2-4.32,4.87-.39C249.32,66.61,247.13,70.72,245.57,71.31Z" fill="#e26b00"/><path d="M220.5,101.6a49.32,49.32,0,0,1-35.32-15.31l4.06-3.87A49.27,49.27,0,0,0,220.55,96Z" fill="#ffae2c"/><path d="M220.55,96a49.27,49.27,0,0,1-31.31-13.55l17.87-17,3.71-3.53h0l10.08-9.59-.16,19,0,6Z" fill="#ffd58b"/><circle cx="196.08" cy="84.73" r="3.02" fill="#e26b00"/><circle cx="206.82" cy="78.37" r="3.02" fill="#e26b00"/><path d="M220.7,77.25a3,3,0,0,1-1.63-.21,3,3,0,0,1,1.67-5.76Z" fill="#fff" stroke="#000" stroke-miterlimit="10"/><circle cx="215.38" cy="85.68" r="3.02" fill="#fff" stroke="#000" stroke-miterlimit="10"/><path d="M208.88,67.58a3,3,0,0,1-1.77-2.18l3.71-3.53h0c.15.05.3.09.44.15,1.53.66,4.4-1.76,3.79,3.08C214.84,66.76,210.42,68.23,208.88,67.58Z" fill="#e26b00"/><path d="M258.58,89.75a77.78,77.78,0,0,1-26.64,4.7,78,78,0,0,1-27.3-4.94l11.45-26.64L223.18,65l-5-7,1.86-4.35,3.2-7.43h0L231.94,26l8.3,19.86L238,51.2l3.34-2.6,2.15,5.13,3.64,8.71Z" fill="url(#a)"/><circle cx="216.02" cy="88.61" r="4.78" fill="#e26b00"/><path d="M262,98a78,78,0,0,1-60.87-.31l3.5-8.15a78,78,0,0,0,27.3,4.94,77.78,77.78,0,0,0,26.64-4.7Z" fill="#ffae2c"/><circle cx="227.69" cy="72.69" r="4.78" fill="#e26b00"/><path d="M247.17,62.44a4.73,4.73,0,0,1-2.5.7,4.77,4.77,0,0,1-1.14-9.41Z" fill="#e26b00"/><circle cx="244.67" cy="78" r="4.78" fill="#e26b00"/><path d="M224,55.71a4.75,4.75,0,0,1-3.93-2.06l3.2-7.43h0a4.49,4.49,0,0,1,.73-.06c2.64,0,5.31-5.3,7.43,2.13C232.14,50.82,226.62,55.71,224,55.71Z" fill="#e26b00"/><path d="M45.35,46.89a3.65,3.65,0,0,1,.18-.47c.6-1,2-1.28,3.29-1.23.26-2,1-5.59.61-6.19s-3.51-2.83-3-5c.62-2.78,3.18-3.92,5.53-4.09a11.15,11.15,0,0,1,2.64.19,16.4,16.4,0,0,1,2.54.7c4,1.37,7.4,3.63,8.49,7.2a7.3,7.3,0,0,1,.2,3.08,8,8,0,0,1-1,2.88c-2,3.56-6.4,5.44-11.14,5.48-.08,0-.12,0-.2,0l-.62,2.77A6.25,6.25,0,0,1,52,54.64a2.62,2.62,0,0,1-2.43,1.06,2.59,2.59,0,0,1-2-2.09,5.17,5.17,0,0,1,.06-1.92c.06-.27.16-.58.23-.89l.39-2L47,48.59C46,48.37,45.16,47.76,45.35,46.89Zm9.48-3.48c-.16.88-.32,1.79-.52,2.65,1.71,0,3.56-.6,3.86-2.43s-1.3-2.88-2.83-3.45C55.22,41.28,55,42.33,54.83,43.41ZM62,35.53c-.39-.06-.81.12-.82.52a1.64,1.64,0,0,0,.11.45,6.21,6.21,0,0,0,1.5,1.89,1.26,1.26,0,0,0,.34.23l.18,0a.29.29,0,0,0,.33-.21l0-.21C63.75,37.21,63.2,35.72,62,35.53Z"/><path d="M73.66,57.5a2.16,2.16,0,0,1-2.33,1.37c-2.1-.23-2.48-2.07-2.68-3.67-.37-2.94-.83-5.88-1.12-8.81a25.44,25.44,0,0,1-.07-6.18c.37-2.79,1.68-4.62,3.73-5.27a4.51,4.51,0,0,1,2-.2,4.76,4.76,0,0,1,3.32,2.06,6.38,6.38,0,0,1,1,4.28A26.55,26.55,0,0,1,77,44c-.63,2.73-1.2,5.43-1.8,8.12A28.94,28.94,0,0,1,73.66,57.5Zm2.12-17.12a4.37,4.37,0,0,0-.56-2.85,1.36,1.36,0,0,0-1.06-.75c-.25,0-.54-.06-.57.22l0,.18c0,.5.47.77.72,1.12a4.8,4.8,0,0,1,.52,2.12.89.89,0,0,0,.5.63h.18c.11,0,.24-.12.25-.22Z"/><path d="M79.67,40.77a4.47,4.47,0,0,1,1.55-2.88,10.85,10.85,0,0,1,6.17-2.2,29.81,29.81,0,0,1,4.23-.17,17.11,17.11,0,0,1,7,1.63c1.47.72,3.13,2,3.14,4.05,0,2.49-1.83,3.93-3.23,5.24-2.3,2-4.55,4.17-6.82,6.31-.23.2-.63.51-.64.9s.36.65.87.67c2.09.06,4.08-1.07,6.13-1.06a5.24,5.24,0,0,1,4.5,2.49,4.58,4.58,0,0,1,.65,2.19,3,3,0,0,1-1.08,2.43,6.54,6.54,0,0,1-3.22,1.26,37.33,37.33,0,0,1-8,.63,28.49,28.49,0,0,1-5.56-.71c-2.75-.66-5.86-1.92-5.63-4.94a4.57,4.57,0,0,1,2.11-3.09c3.58-3,7.19-5.83,10.75-8.72.12-.1.35-.27.35-.49,0-.39-.28-.54-.65-.55a2.09,2.09,0,0,0-.52.05c-2.4.5-4.54,1.29-7.3,1.12S79.45,43.42,79.67,40.77Zm20,.58c0-.07,0-.14,0-.21a2.66,2.66,0,0,0-2-2.36c-.18,0-.6,0-.69.1a.85.85,0,0,0-.12.46c.14.57.69.9,1,1.26a10.34,10.34,0,0,0,.92.82,1,1,0,0,0,.33.18c.07,0,.15,0,.22,0A.28.28,0,0,0,99.67,41.35Zm1.15,15.8c0-.08,0-.15,0-.22a2.73,2.73,0,0,0-2.14-2.35c-.19,0-.65,0-.74.1a.75.75,0,0,0-.12.47c.15.57.73.89,1.12,1.25s.63.57,1,.82a1,1,0,0,0,.35.17c.08,0,.16,0,.24,0A.28.28,0,0,0,100.82,57.15Z"/><path d="M104.24,41.56a4.44,4.44,0,0,1,1.26-3c1.38-1.52,3.56-2.31,5.91-2.8a29.35,29.35,0,0,1,4.19-.59,17.06,17.06,0,0,1,7.14.93c1.53.57,3.31,1.7,3.53,3.72.27,2.47-1.44,4.08-2.7,5.52-2.09,2.27-4.12,4.61-6.16,7-.22.23-.58.57-.56,1s.43.62.93.58c2.09-.14,4-1.47,6-1.66a5.26,5.26,0,0,1,4.73,2,4.76,4.76,0,0,1,.87,2.12,3.06,3.06,0,0,1-.84,2.52,6.49,6.49,0,0,1-3.08,1.57,36.77,36.77,0,0,1-7.9,1.42,27.63,27.63,0,0,1-5.61-.15c-2.79-.38-6-1.33-6.08-4.35A4.58,4.58,0,0,1,107.67,54c3.27-3.3,6.58-6.52,9.83-9.74.11-.12.32-.31.3-.52,0-.39-.33-.52-.7-.49a2,2,0,0,0-.52.11c-2.34.72-4.39,1.73-7.15,1.83S104.28,44.23,104.24,41.56Zm20-1.4c0-.07,0-.14,0-.21A2.65,2.65,0,0,0,122,37.8c-.18,0-.6,0-.68.17a.81.81,0,0,0-.07.47c.2.55.78.82,1.17,1.14a8,8,0,0,0,1,.73.88.88,0,0,0,.34.15c.08,0,.15,0,.23,0A.29.29,0,0,0,124.2,40.16Zm2.71,15.6a1.49,1.49,0,0,0,0-.21,2.71,2.71,0,0,0-2.37-2.13c-.19,0-.64,0-.72.18a.74.74,0,0,0-.07.47c.2.55.82.81,1.24,1.13a10.83,10.83,0,0,0,1,.72,1.09,1.09,0,0,0,.37.14c.08,0,.16,0,.24,0A.27.27,0,0,0,126.91,55.76Z"/><path d="M128.82,53.73c0-.1,0-.21,0-.35.21-2,2.35-2.27,4.46-2.8.5-3.65.66-7.3,1.23-10.93.34-2.14,1-4.34,2.7-5.55a3.57,3.57,0,0,1,1.59-.64A5.36,5.36,0,0,1,143,35c3,2.45,5,6,6.84,9.38.63,1.22,1.42,3.35,1.9,3.61.82.45,4.83-.3,5.33,1.95a2.24,2.24,0,0,1-2,2.69,6.78,6.78,0,0,1-1.19.14,19,19,0,0,1,.81,2.52c.38,1.81-.24,3.76-2.3,4.17-2.31.46-4-1.07-5-2.28a29.12,29.12,0,0,1-3.05-4.52,32.39,32.39,0,0,0-4.34.39c-1.55.24-4.08.58-4.51,1.13s-.28,2.53-.4,3.75c-.1.92-.28,2.15-1.55,2.32a1.33,1.33,0,0,1-1.45-1.29,6,6,0,0,1,.06-1.12c.11-.8.25-1.57.35-2.37a5.36,5.36,0,0,1-1,.22A2.37,2.37,0,0,1,128.82,53.73Zm10-15.12c-.59.09-.72.65-.85,1.06a92.37,92.37,0,0,0-1.8,10.27c1.25-.25,2.54-.48,3.83-.68.92-.15,1.83-.29,2.75-.41-.05-.1-.08-.24-.13-.34-1.14-3.06-1.47-6.42-3-9.31A.77.77,0,0,0,138.81,38.61Zm4-1.37,0-.21a2.66,2.66,0,0,0-2.38-2,.7.7,0,0,0-.26,0,.52.52,0,0,0-.45.68c.24.54.87.76,1.3,1a3,3,0,0,0,1.4.77c.07,0,.12,0,.19,0A.38.38,0,0,0,142.85,37.24ZM156,50l0-.21a2.3,2.3,0,0,0-2.11-1.25c-.33,0-.65.1-.59.41s.52.4.82.48a3.62,3.62,0,0,1,1,.73.75.75,0,0,0,.63.15A.29.29,0,0,0,156,50Z"/><path d="M73.72,100.66a5.56,5.56,0,0,1-.91,0c-3-.5-5.16-2.69-7-4.52-2-2-4-4.07-5.89-6.21-.14-.14-.23-.28-.37-.41-.31,2.51-.63,5-1,7.44-.32,2.06-1.05,4.57-3.47,4.57a3.58,3.58,0,0,1-2.83-1.6,9.41,9.41,0,0,1-1.19-3.38c-1.37-6.44-3.33-12.83-4-19.36-.09-1-.18-1.92-.18-2.88a11.33,11.33,0,0,1,.87-4.61A7,7,0,0,1,54,65.31a7.25,7.25,0,0,1,6.53,4.93,12.22,12.22,0,0,1,.64,4.25c0,.73,0,1.46-.09,2.19A24.93,24.93,0,0,1,70.53,69a6.13,6.13,0,0,1,2.83-.87h.13a2.32,2.32,0,0,1,2.42,2.1c0,1.42-1.23,2.29-2.1,2.88-4.15,2.88-9,4.66-12.14,8.59a1.11,1.11,0,0,0-.37.82.85.85,0,0,0,.55.73c2.42,1.37,5,2.47,7.35,3.93a26.33,26.33,0,0,1,6.35,5.39,6.93,6.93,0,0,1,2,4.52A3.54,3.54,0,0,1,73.72,100.66ZM58.61,73.89c0-.09,0-.18,0-.27v-.46a5.84,5.84,0,0,0-2-4.79,1.55,1.55,0,0,0-.92-.32.67.67,0,0,0-.68.77c.18.64.82,1.05,1.19,1.51a3.75,3.75,0,0,1,.68,1.14c.32,1,.18,2.56,1.19,2.79h.23A.35.35,0,0,0,58.61,73.89ZM75.09,96.5v-.27a4.2,4.2,0,0,0-1.19-2.65,2.35,2.35,0,0,0-1.82-1.19c-.41,0-.6.27-.6.78a2.78,2.78,0,0,0,.87,1.23c.23.23.41.46.6.68.41.55.77,1.6,1.55,1.79h.23A.5.5,0,0,0,75.09,96.5Zm-.68-26.31c0-.73-.78-1-1.42-1.18-.09,0-.18-.05-.27-.05a.76.76,0,0,0-.78.82A1.73,1.73,0,0,0,73.4,71,.93.93,0,0,0,74.41,70.19Z" fill="#68d391"/><path d="M88.2,96.18a2.57,2.57,0,0,1-2.52,2.06c-2.42,0-3.1-2.29-3.56-4.3-.82-3.7-1.78-7.35-2.6-11a35.76,35.76,0,0,1-1-7.85c0-3.61,1.32-6.17,3.79-7.31a5.62,5.62,0,0,1,2.42-.55,5.81,5.81,0,0,1,4.43,2.19,8,8,0,0,1,1.78,5.35,33.72,33.72,0,0,1-.27,3.74c-.46,3.56-.83,7.08-1.24,10.6A43.54,43.54,0,0,1,88.2,96.18ZM88.7,74a5.73,5.73,0,0,0-1-3.56,1.7,1.7,0,0,0-1.42-.82c-.32,0-.68,0-.68.36v.23c.09.64.68.91,1,1.32a6.29,6.29,0,0,1,.91,2.65,1.08,1.08,0,0,0,.69.73h.22a.34.34,0,0,0,.28-.32Z" fill="#68d391"/><path d="M103.49,91.34c0,1.51.32,3.06.32,4.61a10.56,10.56,0,0,1-.32,2.7c-.54,1.69-1.82,3.47-4,3.47a4.64,4.64,0,0,1-3.7-2.29c-1.32-1.91-1.55-4.29-1.55-7,0-.91,0-1.92,0-2.92.23-6.08-.18-12.29,1.69-18,.69-2.1,1.92-4.66,4.66-4.66,2,0,3.52,1.69,4.29,3.06a19.12,19.12,0,0,1,1.92,6.21c.82,4.34,1.78,8.63,2.83,12.93a1.41,1.41,0,0,0,.83,1.14.67.67,0,0,0,.82-.55,3.42,3.42,0,0,0,0-.64c-.37-4.7-1.69-9.41-1.69-14.11V75c0-3.56,1.23-6.67,3.88-7.72a4.4,4.4,0,0,1,1.69-.32,4.63,4.63,0,0,1,3.43,1.51,8.21,8.21,0,0,1,1.68,4.11,34.91,34.91,0,0,1,.6,6.62,76.89,76.89,0,0,1-2.24,16.4c-.55,2.51-1.51,5.75-4.57,5.75-1.82,0-3.19-1.32-4.15-2.33a31.44,31.44,0,0,1-5.62-8.4c-.18-.18-.09-.32-.46-.32S103.49,90.88,103.49,91.34Zm-2.6-22.06c-.37,0-.82.18-.82.55v.32a2.07,2.07,0,0,0,.23.59A8.35,8.35,0,0,0,102.44,73a2.88,2.88,0,0,0,.41.27h.28a.35.35,0,0,0,.32-.37v-.27C103.36,71.2,102.53,69.28,100.89,69.28Zm14.52-.36c-.45,0-.87.13-.87.45v.28a1.91,1.91,0,0,0,.23.5A7.36,7.36,0,0,0,116.83,72a1.93,1.93,0,0,0,.46.22h.22a.38.38,0,0,0,.32-.32v-.22C117.74,70.42,116.83,68.92,115.41,68.92Z" fill="#68d391"/><path d="M146.24,83.85a5.93,5.93,0,0,1,1.73.23c3.47,1,5.85,4.56,5.85,8.67a11.77,11.77,0,0,1-4.25,8.91,13.33,13.33,0,0,1-8.86,3.15,15.94,15.94,0,0,1-8.4-2.42c-5.21-3.29-9-9.64-9-17.72,0-8.81,4.85-15.8,11.51-18.22a15.61,15.61,0,0,1,5.26-.87c4.61,0,9.27,1.78,11.41,4.52a6,6,0,0,1,1.37,3.7,5.72,5.72,0,0,1-2.65,4.62c-3.24,2.32-7.58,2.1-11.37,3.51a9.92,9.92,0,0,0-3.38,2,7.72,7.72,0,0,0-1.18,9.68,8.26,8.26,0,0,0,7,3.88c1.88,0,4.52-.54,4.52-2.51,0-1.32-1.27-1.5-2.32-1.87A4.39,4.39,0,0,1,140.71,89,5.27,5.27,0,0,1,146.24,83.85ZM149.71,75v-.32a4.44,4.44,0,0,0-1-2.47,22.55,22.55,0,0,0-1.65-2.06,4.74,4.74,0,0,0-1.64-1.32,1,1,0,0,0-.37-.09.83.83,0,0,0-.77.91c.18.82,1,1.23,1.5,1.65a6,6,0,0,1,1.1,1.09c.64.87.87,2,1.6,2.74a1.13,1.13,0,0,0,.5.28h.27A.45.45,0,0,0,149.71,75Zm-1.33,12.78c-.41,0-.87.05-.87.51s.6.5.92.73c.68.27.91,1.59,1.73,1.59a.6.6,0,0,0,.64-.64,1.07,1.07,0,0,0-.13-.5,3.83,3.83,0,0,0-1.88-1.6A1.43,1.43,0,0,0,148.38,87.82Z" fill="#68d391"/></svg>