<svg xmlns="http://www.w3.org/2000/svg" xmlns:xlink="http://www.w3.org/1999/xlink" viewBox="0 0 217 217"><defs><style>.cls-1,.cls-4{fill:#fff;}.cls-2{fill:#ffae2c;}.cls-3{fill:#ffd58b;}.cls-4{stroke:#000;stroke-miterlimit:10;}.cls-5{fill:#e26b00;}.cls-6{fill:url(#linear-gradient);}</style><linearGradient id="linear-gradient" x1="87.11" y1="69.53" x2="115.9" y2="167.03" gradientUnits="userSpaceOnUse"><stop offset="0" stop-color="#ffd58b"/><stop offset="0.8" stop-color="#f4ab41"/><stop offset="1" stop-color="#eb8600"/></linearGradient></defs><title>favicon</title><g id="Layer_2" data-name="Layer 2"><g id="Layer_1-2" data-name="Layer 1"><rect class="cls-1" width="217" height="217" rx="35.41"/><path class="cls-2" d="M198.24,150.25a92.93,92.93,0,0,1-68.12,25l.52-10.55A93,93,0,0,0,191,142.51Z"/><path class="cls-3" d="M191,142.51a93,93,0,0,1-60.35,22.17l2.3-46.47.48-9.63h0l1.29-26.19,24.48,26.15,7.69,8.21Z"/><circle class="cls-4" cx="142.98" cy="158.94" r="5.69"/><circle class="cls-5" cx="149.4" cy="136.3" r="5.69"/><path class="cls-5" d="M166.88,116.75a5.69,5.69,0,1,1-7.69-8.21Z"/><circle class="cls-5" cx="170.57" cy="135.17" r="5.69"/><path class="cls-5" d="M138.19,118.89a5.7,5.7,0,0,1-5.25-.68l.48-9.63h0a8,8,0,0,1,.79-.36c2.95-1.1,3.72-8.13,9.18-.72C145.26,110,141.13,117.79,138.19,118.89Z"/><path class="cls-2" d="M90.94,176a92.91,92.91,0,0,1-66.57-28.85L32,139.84a93,93,0,0,0,59,25.53Z"/><path class="cls-3" d="M91,165.37a93,93,0,0,1-59-25.53l33.69-32.08,7-6.65h0L91.69,83l-.29,35.82-.09,11.25Z"/><circle class="cls-5" cx="44.92" cy="144.18" r="5.69"/><circle class="cls-5" cx="65.17" cy="132.21" r="5.69"/><path class="cls-4" d="M91.31,130.09a5.63,5.63,0,0,1-3.06-.4,5.69,5.69,0,0,1,3.15-10.85Z"/><circle class="cls-4" cx="81.29" cy="145.97" r="5.69"/><path class="cls-5" d="M69.05,111.86a5.65,5.65,0,0,1-3.33-4.1l7-6.65h0a8.09,8.09,0,0,1,.83.28c2.88,1.24,8.3-3.33,7.14,5.81C80.28,110.32,71.94,113.09,69.05,111.86Z"/><path class="cls-6" d="M162.71,153.65a146.62,146.62,0,0,1-50.21,8.85,147,147,0,0,1-51.45-9.3L82.63,103,96,107,86.58,93.81l3.52-8.2,6-14h0L112.5,33.5l15.64,37.43L124,81l6.3-4.9,4,9.66,6.86,16.41Z"/><circle class="cls-5" cx="82.5" cy="151.5" r="9"/><path class="cls-2" d="M169.18,169.13a147,147,0,0,1-114.73-.58l6.6-15.35a147,147,0,0,0,51.45,9.3,146.62,146.62,0,0,0,50.21-8.85Z"/><circle class="cls-5" cx="104.5" cy="121.5" r="9"/><path class="cls-5" d="M141.2,102.17a8.88,8.88,0,0,1-4.7,1.33,9,9,0,0,1-2.16-17.74Z"/><circle class="cls-5" cx="136.5" cy="131.5" r="9"/><path class="cls-5" d="M97.5,89.5a9,9,0,0,1-7.4-3.89l6-14h0a10.4,10.4,0,0,1,1.37-.1c5,0,10-10,14,4C112.87,80.28,102.47,89.5,97.5,89.5Z"/></g></g></svg>